<svg width="39" height="39" viewBox="0 0 39 39" fill="none" xmlns="http://www.w3.org/2000/svg">
<g clip-path="url(#clip0)">
<path d="M37.9766 30.0865L30.0829 24.8223C29.0811 24.1596 27.7383 24.3776 26.9978 25.3233L24.6984 28.2797C24.4029 28.6694 23.8657 28.7824 23.4382 28.5449L23.0009 28.3038C21.5509 27.5135 19.7468 26.5296 16.1119 22.8934C12.477 19.2571 11.4911 17.4517 10.7008 16.0044L10.4609 15.567C10.2202 15.1396 10.3311 14.6002 10.7209 14.3023L13.6753 12.0036C14.6206 11.263 14.8389 9.92055 14.177 8.9185L8.91282 1.02476C8.23446 0.00436346 6.87347 -0.301954 5.82329 0.329341L2.52241 2.31218C1.48526 2.92192 0.724339 3.90942 0.399209 5.06775C-0.789429 9.39869 0.104772 16.8732 11.1155 27.8852C19.8742 36.6433 26.3947 38.9986 30.8765 38.9986C31.9079 39.003 32.9353 38.8688 33.931 38.5996C35.0896 38.2748 36.0772 37.5138 36.6866 36.4764L38.6714 33.1775C39.3036 32.1271 38.9975 30.7652 37.9766 30.0865ZM37.5516 32.5106L35.5713 35.8115C35.1338 36.5603 34.4234 37.1109 33.5891 37.3479C29.5909 38.4456 22.6057 37.5364 12.035 26.9657C1.46432 16.395 0.555186 9.41042 1.65289 5.41161C1.8902 4.57628 2.44146 3.86502 3.19118 3.42679L6.49205 1.44654C6.94772 1.17236 7.53843 1.30526 7.83279 1.74806L10.6924 6.04131L13.0925 9.64111C13.3799 10.0758 13.2855 10.6583 12.8755 10.9799L9.92035 13.2786C9.02104 13.9663 8.76423 15.2105 9.31792 16.198L9.55257 16.6244C10.3832 18.1477 11.4158 20.0428 15.1859 23.8123C18.956 27.5817 20.8505 28.6145 22.3732 29.445L22.8002 29.6803C23.7876 30.2339 25.0319 29.9771 25.7196 29.0778L28.0182 26.1227C28.3399 25.7129 28.9223 25.6185 29.3571 25.9057L37.2501 31.1699C37.6932 31.464 37.8261 32.055 37.5516 32.5106Z" fill="#FF7D34"/>
<path d="M22.0989 6.50337C28.1979 6.51015 33.1404 11.4527 33.1472 17.5518C33.1472 17.9107 33.4382 18.2016 33.7971 18.2016C34.1561 18.2016 34.447 17.9107 34.447 17.5518C34.4395 10.7352 28.9155 5.21108 22.0989 5.20361C21.7399 5.20361 21.449 5.49455 21.449 5.85349C21.449 6.21244 21.7399 6.50337 22.0989 6.50337Z" fill="#FF7D34"/>
<path d="M22.0989 10.4025C26.0452 10.4072 29.2432 13.6052 29.2478 17.5515C29.2478 17.9104 29.5388 18.2014 29.8977 18.2014C30.2566 18.2014 30.5476 17.9104 30.5476 17.5515C30.5422 12.8876 26.7627 9.10811 22.0989 9.10278C21.7399 9.10278 21.449 9.39372 21.449 9.75266C21.449 10.1116 21.7399 10.4025 22.0989 10.4025Z" fill="#FF7D34"/>
<path d="M22.0989 14.3022C23.8926 14.3043 25.3462 15.7579 25.3484 17.5517C25.3484 17.9107 25.6394 18.2016 25.9983 18.2016C26.3571 18.2016 26.6482 17.9107 26.6482 17.5517C26.6453 15.0404 24.6102 13.0053 22.0989 13.0024C21.7399 13.0024 21.449 13.2934 21.449 13.6523C21.449 14.0113 21.7399 14.3022 22.0989 14.3022Z" fill="#FF7D34"/>
</g>
<defs>
<clipPath id="clip0">
<rect width="39" height="39" fill="white"/>
</clipPath>
</defs>
</svg>
